<?xml version="1.0" encoding="UTF-8"?>
<svg width="32px" height="32px" viewBox="0 0 32 32" version="1.1" xmlns="http://www.w3.org/2000/svg" xmlns:xlink="http://www.w3.org/1999/xlink">
    <!-- Generator: Sketch 48.2 (47327) - http://www.bohemiancoding.com/sketch -->
    <title>shape/x</title>
    <desc>Created with Sketch.</desc>
    <defs></defs>
    <g id="Symbols" stroke="none" stroke-width="1" fill="none" fill-rule="evenodd">
        <g id="shape/x" fill="#FF6262">
            <path d="M20,12 L28,12 C30.209139,12 32,13.790861 32,16 C32,18.209139 30.209139,20 28,20 L20,20 L20,28 C20,30.209139 18.209139,32 16,32 C13.790861,32 12,30.209139 12,28 L12,20 L4,20 C1.790861,20 0,18.209139 0,16 C0,13.790861 1.790861,12 4,12 L12,12 L12,4 C12,1.790861 13.790861,4.05812251e-16 16,0 C18.209139,-4.05812251e-16 20,1.790861 20,4 L20,12 Z" id="Combined-Shape" transform="translate(16.000000, 16.000000) rotate(-315.000000) translate(-16.000000, -16.000000) "></path>
        </g>
    </g>
</svg>